<?xml version="1.0" encoding="UTF-8" standalone="no"?><svg xmlns="http://www.w3.org/2000/svg" xmlns:xlink="http://www.w3.org/1999/xlink" fill="#000000" height="66.45" stroke="#000000" stroke-linecap="square" stroke-miterlimit="10" width="243.94"><defs><clipPath id="a"><path d="M0 0V66.45H243.94V0Z"/></clipPath><clipPath clip-path="url(#a)" id="d"><path d="M-178.14 443.36h595v-842h-595Zm0 0"/></clipPath><clipPath id="b"><path d="M0 0V66.45H243.94V0Z"/></clipPath><clipPath clip-path="url(#b)" id="c"><path d="M-178.14 443.36h595v-842h-595Zm0 0"/></clipPath><clipPath clip-path="url(#c)" id="e"><path d="M-178.14-398.64h595v842h-595Zm0 0"/></clipPath></defs><g><g fill="#2b0101" stroke="none"><path clip-path="url(#d)" d="M15.08 42.28h1.34V56.65H15.08Zm0 0"/><path clip-path="url(#e)" d="M21.31 48.22h1.34v8.43H21.31Zm1.51-2.31l-.08.44-.53.42-.67-.08-.42-.53.08-.67.53-.42.67.08.42.53"/><path clip-path="url(#e)" d="M30.89 43.53l-.74.1-.35.66v3.93h2.24v1.24H29.8v7.19H28.46V49.47H26.75V48.22h1.71V44.97c0-.86.2-1.52.6-1.98s1.08-.7 2.02-.7h.96v1.25Zm0 0"/><path clip-path="url(#e)" d="M41.71 50.03c-.55-.46-1.19-.69-1.91-.69-1.09 0-1.96.49-2.59 1.48l-.33.63 5.9.36c-.15-.72-.51-1.31-1.08-1.78m2.5 2.93H36.8c.13.72.48 1.32 1.05 1.78.58.47 1.24.71 1.96.71l.95-.11c.88-.45 1.25-.76 1.54-1.15h1.53l-.9 1.44c-1.44.93-2.18 1.17-2.93 1.17l-1.39-.12c-1.06-.46-1.53-.77-1.93-1.17-.86-.85-1.29-1.88-1.29-3.1s.43-2.25 1.29-3.11 1.9-1.29 3.11-1.29c1.18 0 2.2.41 3.08 1.24.89.85 1.33 1.85 1.33 3.01Zm0 0"/><path clip-path="url(#e)" d="M50.86 55.79c1.23 0 1.84-.46 1.84-1.38l-.44-.95c-1.25-.41-1.65-.52-2.07-.62l-.83-.24c-.81-.37-1.14-.63-1.35-.93L47.68 51c0-1.26.29-1.89.88-2.32s1.29-.65 2.11-.65l2.04.51c.54.33.9.92 1.08 1.78H52.35c-.14-.47-.36-.78-.65-.94l-.65-.23c-.83 0-1.19.09-1.49.27l-.46.46.13 1.04c.51.35.82.5 1.19.61l.77.22c.86.19 1.26.33 1.64.51.87.41 1.3 1.08 1.3 1.98s-.32 1.58-.98 2.01l-.69.38c-.79.22-1.21.27-1.67.27-1.96 0-3.08-.87-3.37-2.61h1.42c.14.55.38.93.72 1.15l.77.34"/><path clip-path="url(#e)" d="M56.9 48.22h2.11V44.95h1.34v3.28h2.09v1.24H60.35v7.19H59.01V49.47H56.9Zm0 0"/><path clip-path="url(#e)" d="M65.62 61.45l2.84-6.17-3.53-7.05h1.53l2.7 5.65 2.42-5.65h1.49L67.25 61.45Zm0 0"/><path clip-path="url(#e)" d="M76.23 42.28h1.34V56.65H76.23Zm0 0"/><path clip-path="url(#e)" d="M88.1 50.03c-.55-.46-1.19-.69-1.91-.69-1.09 0-1.95.49-2.59 1.48l-.33.63 5.9.36c-.15-.72-.52-1.31-1.08-1.78m2.5 2.93H83.19c.13.72.48 1.32 1.05 1.78s1.24.71 1.95.71l.95-.11c.88-.45 1.25-.76 1.54-1.15h1.53l-.9 1.44c-1.44.93-2.18 1.17-2.93 1.17l-1.39-.12c-1.06-.46-1.53-.77-1.93-1.17-.86-.85-1.29-1.88-1.29-3.1s.43-2.25 1.29-3.11 1.9-1.29 3.11-1.29c1.18 0 2.2.41 3.08 1.24.89.85 1.33 1.85 1.33 3.01Zm0 0"/><path clip-path="url(#e)" d="M112.51 51.35c0-.87-.27-1.48-.82-1.83l-.49-.18-1.16.12c-.69.46-.96.75-1.17 1.11l-.15.3-.06.38v5.38h-1.34V51.35c0-.87-.28-1.48-.82-1.83l-.49-.18c-.79 0-1.16.12-1.51.35l-.62.52c-.48.84-.65 1.42-.72 2.1v4.31h-1.34V48.18h1.34v1.34l.57-.78c.82-.59 1.33-.75 1.92-.75l1.06.09c.71.37 1.01.62 1.25.92l.26.38.68-.62c.84-.61 1.35-.77 1.94-.77l1.06.09c.71.37 1.01.62 1.25.92.47.6.7 1.38.7 2.34v5.27h-1.34Zm0 0"/><path clip-path="url(#e)" d="M124.21 50.29c-.57-.61-1.28-.92-2.12-.92s-1.55.31-2.12.92-.85 1.33-.85 2.15.29 1.54.85 2.15 1.28.92 2.12.92 1.55-.31 2.12-.92.85-1.32.85-2.15-.29-1.54-.85-2.15m.85 6.36V55.22l-.16.19c-.88.99-1.86 1.44-3.02 1.44s-2.14-.45-2.94-1.34c-.77-.87-1.16-1.89-1.16-3.07s.39-2.2 1.16-3.07c.8-.89 1.78-1.34 2.94-1.34s2.14.45 2.94 1.34l.16.19.08-1.34h1.34v8.43Zm0 0"/><path clip-path="url(#e)" d="M137.02 51.39l-.12-1.02c-.5-.78-.91-.97-1.48-.97l-1.04.11c-.72.43-1.01.72-1.23 1.07-.4.63-.6 1.48-.6 2.56v3.53h-1.34V48.22h1.34v1.45l.64-.85c.89-.61 1.42-.77 2.02-.77l1.09.09c.74.34 1.05.58 1.31.88.51.6.77 1.39.77 2.37v5.27h-1.34Zm0 0"/><path clip-path="url(#e)" d="M148.72 50.29c-.57-.61-1.28-.92-2.12-.92s-1.55.31-2.12.92-.85 1.33-.85 2.15.28 1.54.85 2.15 1.28.92 2.12.92 1.55-.31 2.12-.92.85-1.32.85-2.15-.29-1.54-.85-2.15m.85 6.36V55.22l-.16.19c-.88.99-1.86 1.44-3.02 1.44s-2.14-.45-2.94-1.34c-.77-.87-1.16-1.89-1.16-3.07s.39-2.2 1.16-3.07c.8-.89 1.78-1.34 2.94-1.34s2.14.45 2.94 1.34l.16.19.08-1.34h1.34v8.43Zm0 0"/><path clip-path="url(#e)" d="M161.67 50.29c-.57-.61-1.28-.92-2.12-.92-.82 0-1.52.31-2.11.92-.58.6-.86 1.32-.86 2.15s.29 1.54.86 2.15c.58.61 1.29.92 2.11.92.84 0 1.55-.31 2.12-.92s.85-1.32.85-2.15-.29-1.54-.85-2.15m-4.31 8.92c.6.6 1.31.89 2.14.89s1.54-.3 2.14-.89.89-1.31.89-2.14V55.24l-.14.18c-.88.98-1.86 1.43-3.03 1.43-1.17 0-2.16-.45-2.96-1.34-.77-.87-1.16-1.89-1.16-3.07s.39-2.2 1.16-3.07c.8-.89 1.79-1.34 2.96-1.34 1.12 0 2.11.45 2.94 1.34l.16.18.06-1.33h1.34v8.85c0 1.2-.43 2.23-1.28 3.09s-1.88 1.28-3.09 1.28-2.23-.43-3.09-1.28c-.68-.68-1.09-1.46-1.23-2.36h1.37c.12.52.39.99.81 1.41"/><path clip-path="url(#e)" d="M174.39 50.03c-.55-.46-1.19-.69-1.91-.69-1.09 0-1.95.49-2.59 1.48l-.33.63 5.9.36c-.15-.72-.51-1.31-1.08-1.78m2.5 2.93h-7.42c.13.72.48 1.32 1.05 1.78.58.47 1.23.71 1.95.71l.95-.11c.88-.45 1.25-.76 1.54-1.15h1.53l-.9 1.44c-1.45.93-2.18 1.17-2.93 1.17l-1.39-.12c-1.06-.46-1.53-.77-1.93-1.17-.86-.85-1.29-1.88-1.29-3.1s.43-2.25 1.29-3.11 1.9-1.29 3.11-1.29c1.18 0 2.2.41 3.08 1.24.89.85 1.33 1.85 1.33 3.01Zm0 0"/><path clip-path="url(#e)" d="M191.71 51.35c0-.87-.27-1.48-.82-1.83l-.48-.18-1.16.12c-.69.46-.97.75-1.17 1.11l-.16.3-.05.38v5.38h-1.34V51.35c0-.87-.28-1.48-.83-1.83l-.49-.18-1.16.12c-.69.46-.96.75-1.17 1.11l-.45 1.06-.07 5h-1.34V48.18h1.34v1.34l.57-.78c.82-.59 1.33-.75 1.92-.75l1.06.09c.71.37 1.01.62 1.25.92l.26.38.68-.62c.84-.61 1.35-.77 1.94-.77l1.06.09c.71.37 1.01.62 1.25.92.46.6.7 1.38.7 2.34v5.27h-1.34Zm0 0"/><path clip-path="url(#e)" d="M203.29 50.03c-.55-.46-1.19-.69-1.91-.69-1.09 0-1.95.49-2.59 1.48l-.33.63 5.9.36c-.15-.72-.52-1.31-1.08-1.78m2.5 2.93h-7.42c.13.72.48 1.32 1.05 1.78s1.23.71 1.95.71l.95-.11c.88-.45 1.25-.76 1.54-1.15h1.53l-.9 1.44c-1.44.93-2.18 1.17-2.93 1.17l-1.39-.12c-1.06-.46-1.53-.77-1.93-1.17-.86-.85-1.29-1.88-1.29-3.1s.43-2.25 1.29-3.11 1.9-1.29 3.11-1.29c1.18 0 2.2.41 3.08 1.24.89.85 1.33 1.85 1.33 3.01Zm0 0"/><path clip-path="url(#e)" d="M215.74 51.39l-.12-1.02c-.5-.78-.91-.97-1.48-.97l-1.04.11c-.72.43-1.01.72-1.23 1.07-.4.63-.6 1.48-.6 2.56v3.53h-1.34V48.22h1.34v1.45l.64-.85c.9-.61 1.43-.77 2.03-.77l1.09.09c.74.34 1.05.58 1.31.88.51.6.77 1.39.77 2.37v5.27h-1.34Zm0 0"/><path clip-path="url(#e)" d="M220.53 48.22h2.11V44.95h1.34v3.28h2.09v1.24h-2.09v7.19h-1.34V49.47h-2.11Zm0 0"/><path clip-path="url(#e)" d="M22.91 12.65c-1.26.03-2.55 1.2-3.66 3.84l-4.86 11.4h-.03c-1.44 3.3-3.03 5.94-6.18 5.94-1.62 0-3.18-.81-3.18-1.8l.39-1.14c2.28 0 3.12 1.35 3.51 1.86 1.59 0 3.78-2.04 4.35-5.61l.03-.06-4.56-10.8c-1.29-3.09-2.04-3.63-3.48-3.63l-.09-.87h7.59c.12 0 .12.87 0 .87-2.58 0-2.82.54-1.53 3.63l3.51 8.43 3.48-8.22c1.11-2.64.66-3.81-1.56-3.84l-.12-.87h6.39c.06 0 .06.87 0 .87" fill="#2b0101"/><path clip-path="url(#e)" d="M49.28 19.67c0-4.44-2.22-7.32-5.55-7.32-3.3 0-5.52 2.88-5.52 7.35s2.22 7.35 5.52 7.35c3.33 0 5.55-2.91 5.55-7.38m-13.74.03c0-4.83 3.39-8.28 8.19-8.28 4.83 0 8.25 3.45 8.25 8.28s-3.42 8.25-8.25 8.25c-4.8 0-8.19-3.42-8.19-8.25" fill="#2b0101"/><path clip-path="url(#e)" d="M64.91 27.62l-.12-.9c2.4 0 2.46-.36 2.46-2.4V16.04c0-2.04.03-2.61-1.89-3.15l-.12-.75c1.41-.24 1.38-.21 3.87-.66l.45.12-.18 2.82h.18c1.98-1.53 4.02-3 6.6-3 3.12 0 4.65 1.86 4.65 6.3v6.6c0 2.04.09 2.4 2.34 2.4l.12.9H76.22c-.12 0-.12-.9 0-.9 2.16 0 2.25-.36 2.25-2.4V18.17c0-3.84-1.41-5.04-3.63-5.04-1.98 0-3.87 1.23-5.22 2.37v8.82c0 2.04.06 2.4 2.22 2.4l.12.9H67.4Zm0 0" fill="#2b0101"/><path clip-path="url(#e)" d="M109.01 23.75V15.11c-1.26-1.65-2.58-2.76-4.86-2.76-3.06 0-5.52 2.64-5.52 7.47 0 3.81 1.74 6.87 4.77 6.87 2.88 0 4.56-1.89 5.61-2.94M95.96 20.09c0-4.77 3.15-8.67 8.46-8.67 1.92 0 3.63.9 4.59 1.59V9.35c0-1.8-.18-3-1.95-2.91l-.15-.72c1.38-.24 2.7-.45 3.99-.69l.45-.03V22.79c0 2.91.15 3.18 1.98 3.75l.09.69c-1.32.21-2.55.45-3.78.66l-.51-.18c0-1.05.06-1.95.09-2.88h-.18c-1.29 1.2-3.33 3.12-6.63 3.12-2.88 0-6.45-2.1-6.45-7.86" fill="#2b0101"/><path clip-path="url(#e)" d="M134.72 26.72l.15.9h-7.74c-.12 0-.12-.9 0-.9 2.25 0 2.34-.36 2.34-2.4V12.68h-2.16l.42-.9h1.74c0-4.98 2.4-6.78 5.1-6.78 2.04 0 3.75 1.29 3.75 2.4l-.42 1.08c-1.62 0-2.19-.69-2.31-2.34l-.57-.27c-2.7.03-3.27 2.04-3.27 3.81l.03 2.1h3.9l-.39.9h-3.48V24.23c0 2.1.09 2.46 2.91 2.49" fill="#2b0101"/><path clip-path="url(#e)" d="M149.03 7.31c0-.84.66-1.53 1.62-1.53.93 0 1.65.63 1.65 1.53 0 .87-.63 1.53-1.65 1.53-.9 0-1.62-.63-1.62-1.53m-1.74 20.31l-.12-.9c2.4 0 2.46-.36 2.46-2.4V16.16c0-2.61-.39-2.79-1.89-3.27l-.12-.72c1.35-.24 2.79-.51 4.11-.75l.27.12V24.32c0 2.04.06 2.4 2.34 2.4l.12.9h-4.68Zm0 0" fill="#2b0101"/><path clip-path="url(#e)" d="M167.09 27.62l-.12-.9c2.4 0 2.46-.36 2.46-2.4V16.04c0-2.04.03-2.61-1.89-3.15l-.12-.75c1.41-.24 1.38-.21 3.87-.66l.45.12-.18 2.82h.18c1.98-1.53 4.02-3 6.6-3 3.12 0 4.65 1.86 4.65 6.3v6.6c0 2.04.09 2.4 2.34 2.4l.12.9H178.4c-.12 0-.12-.9 0-.9 2.16 0 2.25-.36 2.25-2.4V18.17c0-3.84-1.41-5.04-3.63-5.04-1.98 0-3.87 1.23-5.22 2.37v8.82c0 2.04.06 2.4 2.22 2.4l.12.9h-4.56Zm0 0" fill="#2b0101"/><path clip-path="url(#e)" d="M200.81 17.96h7.65c1.11 0 1.62-.36 1.62-1.47 0-2.22-1.35-4.14-3.84-4.14-2.79 0-4.95 2.07-5.43 5.61m12.36 4.62c-1.32 2.52-3.51 5.34-7.32 5.34-4.53 0-7.71-3.48-7.71-8.04 0-4.89 3.39-8.46 8.22-8.46 3.69 0 6.18 2.82 6.18 5.94l-.06 1.17-11.76.42v.57c0 3 1.86 6.72 6.09 6.72 3.24 0 4.74-2.37 5.88-3.99l.51.24" fill="#2b0101"/><path clip-path="url(#e)" d="M229.01 27.29l-.81.54-.6.48-.96-7.05c0-.09.6-.21.63-.06 1.02 4.23 3.54 5.85 5.67 5.85 2.52 0 4.17-1.08 4.17-2.91 0-1.8-1.17-2.4-3.69-3.18l-2.16-.72c-2.28-.72-4.44-1.86-4.44-4.5 0-3.27 2.7-4.32 4.83-4.32 1.74 0 3.09.69 3.93.69l.75-.51.57-.45.84 6.57c0 .09-.6.15-.63.09-.99-4.17-3.15-5.46-5.37-5.46-1.74 0-3.09.87-3.09 2.67 0 1.71 1.05 2.28 3.45 3.03l1.71.54c2.82.87 5.13 1.95 5.13 4.5 0 3.57-3.15 4.86-5.91 4.86-1.71 0-3-.66-4.02-.66" fill="#2b0101"/></g></g></svg>